<?xml version="1.0" encoding="UTF-8" standalone="no"?>
<!-- Created with Inkscape (http://www.inkscape.org/) -->

<svg
   xmlns:dc="http://purl.org/dc/elements/1.1/"
   xmlns:cc="http://creativecommons.org/ns#"
   xmlns:rdf="http://www.w3.org/1999/02/22-rdf-syntax-ns#"
   xmlns:svg="http://www.w3.org/2000/svg"
   xmlns="http://www.w3.org/2000/svg"
   xmlns:sodipodi="http://sodipodi.sourceforge.net/DTD/sodipodi-0.dtd"
   xmlns:inkscape="http://www.inkscape.org/namespaces/inkscape"
   width="92mm"
   height="94mm"
   viewBox="0 0 92 94"
   version="1.1"
   id="svg8"
   sodipodi:docname="blockops_4.svg"
   inkscape:version="0.92.4 5da689c313, 2019-01-14"
   inkscape:export-filename="/home/schiessl/Desktop/blockops.svg.png"
   inkscape:export-xdpi="149.91522"
   inkscape:export-ydpi="149.91522">
  <defs
     id="defs2" />
  <sodipodi:namedview
     id="base"
     pagecolor="#ffffff"
     bordercolor="#666666"
     borderopacity="1.0"
     inkscape:pageopacity="0.0"
     inkscape:pageshadow="2"
     inkscape:zoom="1.4142136"
     inkscape:cx="-240.88162"
     inkscape:cy="175.05657"
     inkscape:document-units="mm"
     inkscape:current-layer="layer1"
     showgrid="false"
     inkscape:window-width="2560"
     inkscape:window-height="1023"
     inkscape:window-x="0"
     inkscape:window-y="0"
     inkscape:window-maximized="1"
     inkscape:snap-global="true" />
  <metadata
     id="metadata5">
    <rdf:RDF>
      <cc:Work
         rdf:about="">
        <dc:format>image/svg+xml</dc:format>
        <dc:type
           rdf:resource="http://purl.org/dc/dcmitype/StillImage" />
        <dc:title></dc:title>
      </cc:Work>
    </rdf:RDF>
  </metadata>
  <g
     inkscape:label="Layer 1"
     inkscape:groupmode="layer"
     id="layer1"
     transform="translate(0,-203)">
    <path
       style="fill:#555555;fill-opacity:1;stroke-width:1.65575671"
       d="M 165.72852 265.16406 C 165.75438 259.84739 165.86328 256.33239 165.86328 250.67578 L 165.86328 230.45703 C 164.21987 230.07621 162.61392 229.63663 161.09961 229.0918 C 149.58994 224.95068 138.71214 216.13714 132.36914 205.80859 C 128.60986 199.68712 127.54304 195.71235 126.39453 183.52148 C 125.16403 170.52531 125.45522 167.56924 128.70703 159.67773 C 128.95736 159.07026 129.36023 158.47974 129.63867 157.87305 L 109.8125 148.03906 C 105.96616 146.13146 103.19671 144.9522 99.46875 143.14453 C 97.2463 143.77122 93.194534 144.23076 85.90625 144.64258 L 69.955078 145.54297 L 68.466797 151.56445 C 64.457209 167.77337 64.337148 167.50122 78.380859 174.04102 C 85.371421 177.29647 91.197663 179.99465 91.328125 180.03906 C 91.45833 180.08215 92.569628 185.30935 93.796875 191.6582 L 96.029297 203.20117 L 85.052734 212.88867 C 72.96861 223.55677 73.081204 222.92504 80.953125 236.39648 C 83.107316 240.08273 85.932023 242.99989 87.230469 242.87891 C 88.528963 242.75796 94.9687 241.01487 101.54297 239.00586 L 113.49609 235.35352 L 122.23047 243.15039 C 127.03406 247.4386 130.93245 251.77418 130.89258 252.7832 C 130.85252 253.79226 130.04218 259.14773 129.0918 264.6875 C 128.14122 270.22712 127.4885 276.09561 127.64062 277.72852 C 127.97417 281.30886 145.19184 288.38449 148.99414 286.50391 C 150.37845 285.82053 154.59661 280.42543 158.36523 274.51172 C 161.89927 268.96631 163.88513 266.39872 165.72852 265.16406 z "
       id="path850"
       transform="matrix(0.26458333,0,0,0.26458333,0,203)" />
    <path
       style="fill:#555555;fill-opacity:1;stroke-width:1.65575671"
       d="M 258.86719 145.38477 C 255.40155 147.10802 253.01453 148.21224 249.41992 150.01758 L 229.19336 160.17383 C 232.63693 171.00343 233.29494 185.89514 230.15039 195.00195 C 226.22474 206.37077 215.25048 219.87384 205.4375 225.4082 C 201.01659 227.90167 195.70562 229.67303 190.11328 230.72266 L 190.11328 252.61719 L 190.11328 267.95898 C 191.65712 269.6724 193.33522 272.1721 196.21484 276.84375 C 201.73252 285.79526 203.88077 288.74797 209.21094 288.12109 L 209.21289 288.12109 C 211.63561 287.8365 214.71406 286.81102 219.06641 285.27344 L 226.2207 282.75 L 224.83789 267.69141 L 223.45117 252.63672 L 233.11914 245.33008 C 242.54352 238.20654 242.91455 238.0799 248 240.16016 C 250.86875 241.33385 256.79509 243.41436 261.16797 244.78516 L 269.11719 247.27734 L 272.79297 242.49805 C 274.8154 239.8695 277.57636 235.55692 278.92578 232.91602 C 281.25961 228.34865 281.21801 227.91447 278.0918 223.99219 C 276.28416 221.72432 271.54302 216.93231 267.55664 213.3418 C 260.97891 207.41739 260.43545 206.37878 261.66211 202.10742 C 262.40544 199.51875 263.50466 194.28648 264.10547 190.48242 L 265.19922 183.56641 L 278.87109 178.55859 L 292.54102 173.54883 L 291.57031 163.40234 C 291.03614 157.82176 289.91994 152.37827 289.08789 151.30273 C 288.2557 150.22697 281.33799 149.02034 273.7168 148.625 C 263.58422 148.09935 260.40467 147.40533 258.86719 145.38477 z "
       id="path846"
       transform="matrix(0.26458333,0,0,0.26458333,0,203)" />
    <path
       style="fill:#555555;fill-opacity:1;stroke-width:1.65575671"
       d="M 111.88086 124.14258 L 114.61914 125.53906 L 114.61914 125.53125 C 125.36726 131.00776 133.57319 135.12284 142.56445 139.65625 C 145.61451 136.64102 148.79193 133.90014 152.06445 131.97266 C 159.88294 127.36753 178.75928 123.81039 187.71484 125.25391 C 196.34186 126.64448 205.9804 131.77833 213.93945 138.63867 C 222.4705 134.43814 229.84094 130.8693 239.79297 125.87109 L 252.22656 119.62695 L 255.26953 114.19141 L 262.39844 101.46094 L 256.85742 95.744141 C 247.50271 86.093986 244.72734 85.709282 234.94727 92.681641 C 230.31955 95.980941 225.43968 99.595713 224.10352 100.7168 C 222.22904 102.28946 219.10266 101.81009 210.41992 98.617188 L 199.16602 94.478516 L 196.99414 83.429688 C 193.76901 67.040371 192.93408 65.353497 187.90625 65.054688 C 185.46348 64.909932 180.36157 64.969358 176.57031 65.185547 C 169.0455 65.614485 169.25772 65.245395 164.19531 86.683594 C 162.70184 93.008406 162.16405 93.456074 151.4668 97.255859 L 140.29688 101.22266 L 129.22852 92.451172 C 123.14195 87.62721 117.53226 83.738925 116.76172 83.810547 C 115.99115 83.882736 111.68503 86.94927 107.19336 90.623047 C 98.072464 98.083305 98.08859 96.848652 106.88086 114.24805 L 111.88086 124.14258 z "
       id="path4529-3-2-28-3"
       transform="matrix(0.26458333,0,0,0.26458333,0,203)" />
    <path
       style="fill:#000000;stroke-width:1.8316052"
       d="M 25.571517,283.96155 6.7975658,274.49357 v -23.4467 -23.44679 l 20.2971102,-9.96149 20.297122,-9.96141 19.99819,10.02947 19.99821,10.02946 v 23.37798 23.37795 l -19.25389,9.57563 c -10.58962,5.26658 -20.27423,9.5275 -21.52136,9.46873 -1.24711,-0.0554 -10.715762,-4.36739 -21.041431,-9.57485 z M 45.261268,269.32481 V 248.6695 l -15.595571,-7.73455 c -8.57755,-4.25408 -16.407661,-7.73462 -17.400241,-7.73462 -1.073509,0 -1.80468,7.99567 -1.80468,19.73515 v 19.73523 l 16.942341,8.54726 c 9.318289,4.70102 17.148411,8.59566 17.400251,8.65472 0.25184,0.0623 0.45793,-9.18746 0.45793,-20.54788 z m 38.46371,-16.39022 c 0,-10.85389 -0.42858,-19.73426 -0.95239,-19.73426 -0.52383,0 -8.35395,3.71722 -17.40026,8.26059 l -16.44785,8.26062 v 20.11721 20.11721 l 17.40025,-8.64349 17.40025,-8.64356 z m -19.66029,-15.40002 16.89863,-8.48705 -16.93523,-8.40985 -16.93523,-8.40992 -16.933721,8.40916 -16.93372,8.40916 16.47581,8.39504 c 9.06172,4.61724 16.698361,8.43671 16.970341,8.48773 0.27198,0.0485 8.09888,-3.72643 17.39312,-8.39427 z"
       id="path4542-2-7"
       inkscape:connector-curvature="0"
       sodipodi:nodetypes="ccccccccccscccccsscscccssccccccsccccccccc" />
  </g>
</svg>
